<svg xmlns="http://www.w3.org/2000/svg" width="26" height="27" viewBox="0 0 26 27" fill="none">
  <path d="M22.7049 3.14543H18.8992V1.23991C18.8992 1.07145 18.8324 0.909893 18.7134 0.790775C18.5945 0.671656 18.4331 0.604736 18.2649 0.604736C18.0967 0.604736 17.9354 0.671656 17.8164 0.790775C17.6975 0.909893 17.6306 1.07145 17.6306 1.23991V3.14543H8.75075V1.23991C8.75075 1.07145 8.68392 0.909893 8.56497 0.790775C8.44602 0.671656 8.28469 0.604736 8.11647 0.604736C7.94825 0.604736 7.78692 0.671656 7.66797 0.790775C7.54902 0.909893 7.48219 1.07145 7.48219 1.23991V3.14543H3.67652C2.83572 3.14644 2.02965 3.48137 1.43512 4.07674C0.840585 4.67211 0.506134 5.47932 0.505127 6.32131V22.8358C0.506134 23.6778 0.840585 24.485 1.43512 25.0804C2.02965 25.6758 2.83572 26.0107 3.67652 26.0117H22.7049C23.5458 26.011 24.352 25.6762 24.9466 25.0808C25.5412 24.4853 25.8756 23.6779 25.8763 22.8358V6.32131C25.8756 5.47922 25.5412 4.67181 24.9466 4.07637C24.352 3.48092 23.5458 3.14611 22.7049 3.14543ZM24.6077 22.8358C24.6077 23.3412 24.4072 23.8259 24.0504 24.1832C23.6935 24.5406 23.2095 24.7414 22.7049 24.7414H3.67652C3.17186 24.7414 2.68786 24.5406 2.33101 24.1832C1.97416 23.8259 1.77368 23.3412 1.77368 22.8358V12.0379H24.6077V22.8358ZM24.6077 10.7675H1.77368V6.32131C1.77368 5.26946 2.62362 4.41578 3.67652 4.41578H7.48219V6.32131C7.48219 6.48976 7.54902 6.65132 7.66797 6.77044C7.78692 6.88956 7.94825 6.95648 8.11647 6.95648C8.28469 6.95648 8.44602 6.88956 8.56497 6.77044C8.68392 6.65132 8.75075 6.48976 8.75075 6.32131V4.41578H17.6306V6.32131C17.6306 6.48976 17.6975 6.65132 17.8164 6.77044C17.9354 6.88956 18.0967 6.95648 18.2649 6.95648C18.4331 6.95648 18.5945 6.88956 18.7134 6.77044C18.8324 6.65132 18.8992 6.48976 18.8992 6.32131V4.41578H22.7049C23.2095 4.41578 23.6935 4.61654 24.0504 4.9739C24.4072 5.33125 24.6077 5.81593 24.6077 6.32131V10.7675Z" fill="#444444"/>
</svg>